<svg width="440" height="108" viewBox="0 0 440 108" fill="none" xmlns="http://www.w3.org/2000/svg">
  <rect width="108" height="108" rx="28" fill="#0F3F43"/>
  <path d="M21 75V33H40.6C51.0892 33 58.6667 40.3629 58.6667 53.965C58.6667 67.5671 51.0892 75 40.6 75H21ZM32.235 65.305H39.445C45.9507 65.305 49.455 60.7794 49.455 53.965C49.455 47.0349 45.9507 42.695 39.445 42.695H32.235V65.305Z" fill="#F6FBFA"/>
  <path d="M69.8896 35.1L53.0896 75H63.2049L66.0746 67.51H82.1046L84.9046 75H95.2296L78.4996 35.1H69.8896ZM74.0546 46.12L78.9896 59.105H69.0496L74.0546 46.12Z" fill="#8CE1D5"/>
  <path d="M128 42.064H139.447V76H128V42.064ZM128 29H139.447V38.734H128V29Z" fill="#0F3F43"/>
  <path d="M148.616 76V42.064H159.575V45.807C162.101 42.972 166.085 41.034 170.895 41.034C179.141 41.034 184.987 46.322 184.987 56.535V76H173.54V58.606C173.54 53.473 170.74 50.586 166.205 50.586C163.284 50.586 160.844 52.077 160.063 53.266V76H148.616Z" fill="#0F3F43"/>
  <path d="M192.465 76V29H203.912V45.807C206.645 42.56 210.629 41.034 214.579 41.034C223.274 41.034 229.705 47.869 229.705 58.503C229.705 69.43 223.308 76.824 214.579 76.824C210.353 76.824 206.541 75.246 203.912 71.929V76H192.465ZM210.767 66.679C215.683 66.679 218.051 62.524 218.051 58.503C218.051 54.447 215.683 50.414 210.767 50.414C207.881 50.414 205.147 51.905 203.912 53.782V63.277C205.147 65.12 207.881 66.679 210.767 66.679Z" fill="#0F3F43"/>
  <path d="M234.864 71.533L239.726 63.758C243.125 66.847 248.35 68.683 253.264 68.683C257.576 68.683 259.407 67.36 259.407 65.454C259.407 59.679 236.263 64.686 236.263 51.349C236.263 45.16 241.662 41.034 251.475 41.034C257.74 41.034 262.859 42.889 266.725 46.046L262.223 53.679C259.958 51.247 255.677 49.46 251.509 49.46C247.968 49.46 245.676 50.656 245.676 52.428C245.676 57.74 268.854 53.078 268.854 66.807C268.854 73.567 263.022 76.824 252.732 76.824C246.433 76.824 239.829 74.658 234.864 71.533Z" fill="#0F3F43"/>
  <path d="M285.703 76.824C279.936 76.824 275.419 75.442 271.829 72.119L276.553 64.264C278.81 66.276 282.204 67.764 285.428 67.764C289.39 67.764 291.944 65.875 291.944 62.799C291.944 59.55 289.39 57.724 285.428 57.724H279.695V48.368H285.428C288.741 48.368 291.185 46.744 291.185 43.892C291.185 40.954 288.741 39.29 285.091 39.29C281.284 39.29 277.795 40.876 275.356 43.11L269.956 36.307C273.831 32.19 279.666 29 286.682 29C297.39 29 303.349 34.086 303.349 41.977C303.349 47.478 299.173 51.703 294.407 52.592C298.944 53.153 304.141 57.596 304.141 63.839C304.141 72.226 297.405 76.824 285.703 76.824Z" fill="#0F3F43"/>
  <path d="M312.546 76V29H324.844L336.217 57.054L347.59 29H359.887V76H348.716V46.542L336.938 76H335.496L323.786 46.542V76H312.546Z" fill="#0F3F43"/>
  <path d="M368.469 76V42.064H379.916V76H368.469ZM374.192 38.734C370.544 38.734 367.57 35.972 367.57 32.568C367.57 29.095 370.544 26.334 374.192 26.334C377.874 26.334 380.813 29.095 380.813 32.568C380.813 35.972 377.874 38.734 374.192 38.734Z" fill="#0F3F43"/>
  <path d="M388.947 76V29H400.394V76H388.947Z" fill="#0F3F43"/>
</svg>
