<svg width="128" height="128" viewBox="0 0 128 128" fill="none" xmlns="http://www.w3.org/2000/svg">
  <rect width="128" height="128" rx="32" fill="#0F3F43"/>
  <path d="M26 89V39H49.3333C61.8208 39 70.8333 47.7653 70.8333 63.9583C70.8333 80.1514 61.8208 89 49.3333 89H26ZM39.375 77.4583H47.9583C55.7036 77.4583 59.875 72.0707 59.875 63.9583C59.875 55.7083 55.7036 50.5417 47.9583 50.5417H39.375V77.4583Z" fill="#F6FBFA"/>
  <path d="M84.8193 41.5L64.8193 89H76.861L80.2777 80.0833H99.361L102.694 89H114.986L95.0693 41.5H84.8193ZM89.7777 54.625L95.6527 70.0833H83.8193L89.7777 54.625Z" fill="#8CE1D5"/>
</svg>
