<svg width="1200" height="840" viewBox="0 0 1200 840" fill="none" xmlns="http://www.w3.org/2000/svg">
  <rect width="1200" height="840" rx="36" fill="#F7FBFA"/>
  <rect x="48" y="48" width="1104" height="744" rx="30" fill="white" stroke="#D7E9E6"/>
  <rect x="86" y="86" width="1028" height="92" rx="24" fill="#0F3F43"/>
  <rect x="122" y="120" width="176" height="14" rx="7" fill="#8CE1D5"/>
  <rect x="122" y="148" width="268" height="18" rx="9" fill="#F6FBFA"/>
  <rect x="890" y="114" width="188" height="36" rx="18" fill="#F6FBFA"/>
  <rect x="86" y="210" width="472" height="240" rx="28" fill="#FCFEFD" stroke="#D7E9E6"/>
  <rect x="118" y="246" width="152" height="14" rx="7" fill="#4E7F84"/>
  <rect x="118" y="284" width="134" height="12" rx="6" fill="#8DB0AC"/>
  <rect x="118" y="324" width="408" height="18" rx="9" fill="#E5F1EF"/>
  <rect x="118" y="360" width="408" height="18" rx="9" fill="#E5F1EF"/>
  <rect x="118" y="396" width="242" height="18" rx="9" fill="#0F3F43"/>
  <rect x="590" y="210" width="524" height="240" rx="28" fill="#EAF6F2"/>
  <rect x="624" y="246" width="168" height="14" rx="7" fill="#0F3F43"/>
  <rect x="624" y="286" width="458" height="16" rx="8" fill="#6E9A9F"/>
  <rect x="624" y="330" width="458" height="18" rx="9" fill="#C5DEDA"/>
  <rect x="624" y="366" width="458" height="18" rx="9" fill="#C5DEDA"/>
  <rect x="624" y="402" width="286" height="18" rx="9" fill="#8CE1D5"/>
  <rect x="86" y="484" width="1028" height="270" rx="28" fill="#FCFEFD" stroke="#D7E9E6"/>
  <rect x="120" y="518" width="164" height="14" rx="7" fill="#4E7F84"/>
  <rect x="120" y="568" width="960" height="18" rx="9" fill="#E5F1EF"/>
  <rect x="120" y="612" width="960" height="18" rx="9" fill="#E5F1EF"/>
  <rect x="120" y="656" width="960" height="18" rx="9" fill="#E5F1EF"/>
  <rect x="120" y="700" width="960" height="18" rx="9" fill="#E5F1EF"/>
  <rect x="120" y="568" width="318" height="18" rx="9" fill="#0F3F43"/>
  <rect x="120" y="612" width="404" height="18" rx="9" fill="#8CE1D5"/>
  <rect x="120" y="656" width="272" height="18" rx="9" fill="#A3C4BF"/>
  <rect x="120" y="700" width="356" height="18" rx="9" fill="#D0A45E"/>
</svg>
