<svg width="1200" height="840" viewBox="0 0 1200 840" fill="none" xmlns="http://www.w3.org/2000/svg">
  <rect width="1200" height="840" rx="36" fill="#F7FBFA"/>
  <rect x="36" y="36" width="1128" height="768" rx="30" fill="white" stroke="#D7E9E6"/>
  <rect x="70" y="70" width="220" height="700" rx="24" fill="#0F3F43"/>
  <rect x="104" y="116" width="104" height="104" rx="24" fill="#8CE1D5"/>
  <rect x="104" y="254" width="152" height="18" rx="9" fill="#F6FBFA"/>
  <rect x="104" y="290" width="122" height="14" rx="7" fill="#CFEAE6"/>
  <rect x="104" y="352" width="152" height="18" rx="9" fill="#F6FBFA"/>
  <rect x="104" y="388" width="122" height="14" rx="7" fill="#CFEAE6"/>
  <rect x="104" y="450" width="152" height="18" rx="9" fill="#F6FBFA"/>
  <rect x="104" y="486" width="122" height="14" rx="7" fill="#CFEAE6"/>
  <rect x="326" y="82" width="420" height="142" rx="28" fill="#0F3F43"/>
  <rect x="360" y="124" width="188" height="16" rx="8" fill="#8CE1D5"/>
  <rect x="360" y="158" width="272" height="40" rx="12" fill="#F6FBFA"/>
  <rect x="776" y="82" width="350" height="142" rx="28" fill="#E8F6F2"/>
  <rect x="810" y="122" width="144" height="16" rx="8" fill="#0F3F43"/>
  <rect x="810" y="160" width="256" height="24" rx="12" fill="#5B8E93"/>
  <rect x="326" y="252" width="244" height="154" rx="26" fill="#F5FBFA" stroke="#D7E9E6"/>
  <rect x="352" y="286" width="118" height="14" rx="7" fill="#4E7F84"/>
  <rect x="352" y="320" width="118" height="44" rx="16" fill="#0F3F43"/>
  <rect x="596" y="252" width="244" height="154" rx="26" fill="#F5FBFA" stroke="#D7E9E6"/>
  <rect x="622" y="286" width="122" height="14" rx="7" fill="#4E7F84"/>
  <rect x="622" y="320" width="144" height="44" rx="16" fill="#0F3F43"/>
  <rect x="866" y="252" width="260" height="154" rx="26" fill="#F5FBFA" stroke="#D7E9E6"/>
  <rect x="892" y="286" width="138" height="14" rx="7" fill="#4E7F84"/>
  <rect x="892" y="320" width="174" height="44" rx="16" fill="#0F3F43"/>
  <rect x="326" y="436" width="800" height="334" rx="28" fill="#FCFEFD" stroke="#D7E9E6"/>
  <rect x="360" y="470" width="188" height="16" rx="8" fill="#4E7F84"/>
  <rect x="944" y="470" width="148" height="36" rx="18" fill="#0F3F43"/>
  <rect x="360" y="536" width="732" height="20" rx="10" fill="#E5F1EF"/>
  <rect x="360" y="584" width="732" height="20" rx="10" fill="#E5F1EF"/>
  <rect x="360" y="632" width="732" height="20" rx="10" fill="#E5F1EF"/>
  <rect x="360" y="680" width="732" height="20" rx="10" fill="#E5F1EF"/>
  <rect x="360" y="536" width="296" height="20" rx="10" fill="#8CE1D5"/>
  <rect x="360" y="584" width="508" height="20" rx="10" fill="#0F3F43"/>
  <rect x="360" y="632" width="388" height="20" rx="10" fill="#A6C8C4"/>
  <rect x="360" y="680" width="580" height="20" rx="10" fill="#D0A45E"/>
</svg>
