<svg width="1200" height="840" viewBox="0 0 1200 840" fill="none" xmlns="http://www.w3.org/2000/svg">
  <rect width="1200" height="840" rx="36" fill="#F7FBFA"/>
  <rect x="40" y="40" width="1120" height="760" rx="30" fill="white" stroke="#D7E9E6"/>
  <rect x="76" y="76" width="1048" height="110" rx="24" fill="#0F3F43"/>
  <rect x="114" y="114" width="164" height="14" rx="7" fill="#8CE1D5"/>
  <rect x="114" y="144" width="332" height="20" rx="10" fill="#F6FBFA"/>
  <rect x="936" y="112" width="150" height="38" rx="19" fill="#F6FBFA"/>
  <rect x="76" y="220" width="306" height="530" rx="28" fill="#FCFEFD" stroke="#D7E9E6"/>
  <rect x="108" y="256" width="136" height="14" rx="7" fill="#4E7F84"/>
  <rect x="108" y="304" width="242" height="88" rx="22" fill="#EAF6F2"/>
  <rect x="108" y="418" width="242" height="88" rx="22" fill="#FFF2DD"/>
  <rect x="108" y="532" width="242" height="88" rx="22" fill="#FCE5E2"/>
  <rect x="108" y="646" width="242" height="72" rx="22" fill="#E9F0EF"/>
  <rect x="418" y="220" width="706" height="248" rx="28" fill="#FCFEFD" stroke="#D7E9E6"/>
  <rect x="452" y="256" width="188" height="14" rx="7" fill="#4E7F84"/>
  <rect x="452" y="304" width="638" height="18" rx="9" fill="#E5F1EF"/>
  <rect x="452" y="348" width="638" height="18" rx="9" fill="#E5F1EF"/>
  <rect x="452" y="392" width="414" height="18" rx="9" fill="#0F3F43"/>
  <rect x="418" y="502" width="336" height="248" rx="28" fill="#EAF6F2"/>
  <rect x="452" y="538" width="142" height="14" rx="7" fill="#0F3F43"/>
  <rect x="452" y="584" width="268" height="20" rx="10" fill="#8CE1D5"/>
  <rect x="452" y="624" width="224" height="20" rx="10" fill="#0F3F43"/>
  <rect x="788" y="502" width="336" height="248" rx="28" fill="#FCFEFD" stroke="#D7E9E6"/>
  <rect x="822" y="538" width="148" height="14" rx="7" fill="#4E7F84"/>
  <rect x="822" y="584" width="268" height="20" rx="10" fill="#E5F1EF"/>
  <rect x="822" y="624" width="268" height="20" rx="10" fill="#E5F1EF"/>
  <rect x="822" y="664" width="198" height="20" rx="10" fill="#D0A45E"/>
</svg>
